<?xml version="1.0" standalone="no"?>
<!DOCTYPE svg PUBLIC "-//W3C//DTD SVG 20010904//EN"
 "http://www.w3.org/TR/2001/REC-SVG-20010904/DTD/svg10.dtd">
<svg version="1.0" xmlns="http://www.w3.org/2000/svg"
 width="680.000000pt" height="340.000000pt" viewBox="0 0 680.000000 340.000000"
 preserveAspectRatio="xMidYMid meet">

<g transform="translate(0.000000,340.000000) scale(0.100000,-0.100000)"
fill="#000000" stroke="none">
<path d="M1655 3029 c-11 -17 -13 -59 -4 -65 5 -3 9 -26 9 -51 0 -35 -3 -44
-15 -40 -24 10 -105 -23 -122 -49 -20 -31 -13 -80 22 -152 30 -61 30 -70 8
-102 -16 -22 -16 -23 1 -17 10 4 15 3 11 -4 -4 -5 -15 -7 -26 -4 -10 4 -19 3
-19 -2 0 -11 -116 -74 -123 -67 -3 4 1 24 10 45 8 22 12 50 9 64 -6 25 -51 55
-81 55 -14 0 -15 7 -10 44 8 54 3 65 -30 58 -21 -4 -25 -10 -25 -39 0 -26 4
-33 16 -31 10 2 19 -3 22 -11 3 -10 0 -12 -12 -8 -9 4 -16 2 -16 -3 0 -6 -8
-10 -17 -11 -32 -1 -78 -35 -81 -59 -2 -12 4 -40 14 -62 9 -21 14 -41 11 -44
-10 -10 -52 4 -80 27 -32 25 -34 52 -7 110 22 50 26 102 8 116 -7 6 -32 20
-55 33 -38 21 -45 22 -69 10 -14 -8 -30 -23 -36 -35 -10 -18 -8 -17 15 3 17
17 32 22 46 17 12 -3 21 -10 21 -14 0 -12 -47 -31 -76 -31 -13 0 -32 -4 -42
-8 -9 -5 -35 -17 -57 -28 -32 -15 -41 -25 -43 -50 -2 -20 4 -36 18 -49 31 -28
26 -53 -12 -57 -34 -3 -46 -23 -34 -55 5 -13 9 -14 18 -5 7 7 29 12 51 12 25
0 36 4 31 11 -4 8 -1 8 14 0 17 -9 23 -8 31 7 6 11 6 24 1 32 -8 13 -12 12
-25 -5 -16 -19 -16 -19 -11 -1 6 18 -12 55 -41 84 -20 20 -16 32 10 28 12 -2
28 1 35 6 9 8 12 4 12 -13 0 -14 9 -41 20 -62 26 -48 25 -62 -6 -122 l-25 -50
3 37 c3 29 1 35 -9 26 -18 -15 -16 -42 5 -68 22 -28 41 -20 35 14 -3 13 3 36
13 50 21 33 21 78 -2 127 -21 48 -13 84 25 100 16 7 28 16 26 20 -3 3 7 4 20
1 19 -3 25 -11 26 -31 0 -24 1 -25 9 -5 9 24 30 41 30 26 0 -5 -7 -29 -15 -52
-8 -23 -16 -55 -17 -71 -3 -39 -18 -37 -18 2 0 17 -4 28 -10 24 -36 -22 16
-92 86 -115 26 -9 49 -21 51 -26 2 -5 -21 -20 -50 -34 -56 -27 -75 -57 -64
-101 14 -50 21 -54 67 -35 23 9 45 14 48 11 12 -11 -16 -26 -72 -37 -56 -12
-58 -12 -77 12 l-19 25 0 -26 c0 -40 45 -79 91 -79 21 0 41 5 44 10 11 17 23
11 29 -15 8 -32 32 -32 40 -1 8 32 61 51 100 36 15 -5 38 -10 51 -10 24 0 47
-27 77 -94 43 -92 -1 -180 -80 -159 -33 8 -29 -23 8 -57 l30 -28 -26 -6 c-17
-5 -35 -1 -52 10 -24 16 -26 16 -39 -2 -22 -30 -15 -64 18 -94 l30 -29 -28
-14 c-45 -23 -99 -7 -130 39 -15 24 -15 27 5 52 67 84 65 114 -16 200 -31 33
-79 84 -106 112 -31 33 -53 49 -63 46 -18 -7 -31 8 -74 81 -19 32 -35 50 -44
47 -15 -6 -99 118 -172 255 -26 50 -53 91 -58 91 -14 0 -44 -36 -56 -66 -15
-41 -10 -85 17 -149 14 -33 28 -67 31 -75 3 -8 -17 7 -46 35 -63 61 -76 54
-76 -40 0 -50 5 -70 23 -94 12 -16 22 -33 22 -36 0 -4 -18 -4 -39 0 -24 4 -42
2 -45 -4 -11 -18 12 -86 39 -115 14 -15 25 -29 25 -31 0 -2 -19 -5 -43 -7 -59
-4 -62 -32 -8 -91 23 -24 41 -46 41 -49 0 -3 -18 -10 -40 -17 -22 -6 -40 -15
-40 -20 0 -19 48 -77 73 -89 32 -15 35 -28 8 -37 -10 -3 -27 -15 -37 -26 -18
-21 -18 -21 12 -49 18 -15 38 -30 45 -32 11 -4 10 -10 -5 -26 -15 -18 -17 -24
-6 -37 10 -13 8 -20 -14 -41 -14 -15 -26 -31 -26 -35 0 -5 -8 -9 -18 -9 -10 0
-28 -7 -40 -16 -20 -14 -22 -22 -17 -55 5 -27 2 -45 -9 -61 -20 -28 -20 -65
-1 -98 8 -14 14 -39 15 -56 0 -16 7 -39 15 -50 8 -10 15 -28 15 -40 0 -25 39
-64 64 -64 9 0 26 5 36 10 10 6 52 12 92 14 40 2 81 7 90 11 9 4 25 2 36 -4
18 -9 26 -5 59 29 l38 40 110 -65 c61 -36 114 -65 118 -65 5 0 6 -13 2 -29 -5
-23 -2 -32 17 -45 12 -9 33 -16 45 -16 25 0 29 -11 13 -41 -16 -29 13 -36 58
-15 l36 18 22 -28 c12 -15 25 -41 28 -57 4 -17 13 -39 22 -48 15 -17 14 -21
-12 -58 -31 -44 -49 -53 -41 -20 9 32 -21 35 -53 4 -27 -26 -29 -26 -60 -10
-71 37 -177 12 -233 -55 -31 -36 -39 -74 -35 -155 l3 -60 28 57 c39 80 85 118
142 118 47 0 115 -26 115 -44 -1 -25 -24 -39 -180 -109 -90 -40 -165 -78 -167
-84 -2 -6 3 -18 12 -27 15 -14 19 -15 47 0 l31 16 59 -60 c75 -76 117 -90 191
-66 75 24 106 50 132 109 22 48 26 51 53 47 16 -2 39 1 51 8 19 10 25 8 42
-14 26 -34 78 -50 114 -36 25 9 31 8 49 -13 47 -53 53 -54 95 -13 34 34 41 37
61 26 29 -16 62 -6 104 31 30 26 38 29 57 19 32 -17 84 -4 112 29 l24 29 22
-21 c15 -16 24 -18 32 -10 8 8 34 -3 97 -39 170 -100 221 -128 229 -128 4 0
18 16 31 35 l22 35 -45 28 c-25 15 -45 33 -45 39 0 19 39 16 75 -7 25 -16 35
-17 42 -8 19 25 123 216 123 227 0 16 -37 33 -45 21 -3 -5 -16 -10 -28 -10
-14 0 -30 -13 -45 -35 -12 -19 -27 -35 -32 -35 -19 0 -10 40 12 58 59 46 87
86 98 139 18 85 -12 155 -72 168 -21 5 -28 11 -24 22 3 8 6 32 6 54 0 31 5 42
23 50 12 5 33 16 47 24 22 13 26 13 38 -2 6 -9 12 -29 12 -44 0 -14 7 -32 15
-39 8 -7 15 -20 15 -29 0 -9 9 -29 20 -46 31 -45 49 -92 44 -112 -3 -10 6 -40
20 -66 15 -26 26 -62 26 -80 0 -54 15 -65 36 -26 49 93 113 230 129 275 32 92
0 144 -89 144 -47 0 -57 4 -75 26 -34 44 -22 104 15 73 11 -9 21 -9 38 -1 13
6 42 8 64 5 99 -13 160 91 97 165 -14 17 -39 34 -56 37 -40 9 -103 -18 -117
-50 -6 -13 -20 -26 -30 -30 -11 -3 -28 -17 -37 -31 l-17 -26 -24 23 c-35 33
-31 70 13 112 27 27 36 43 35 67 -1 54 -13 94 -35 118 -11 12 -19 22 -16 23 2
1 21 3 43 5 21 1 47 11 57 20 19 17 18 18 -6 50 l-25 33 34 16 c19 9 42 26 52
37 20 22 21 20 -41 62 -19 13 -18 15 28 56 59 53 61 80 5 94 -21 5 -38 12 -38
16 0 3 13 16 30 28 34 26 64 77 56 98 -3 9 -20 14 -46 14 -42 0 -50 9 -24 31
40 33 58 114 28 126 -8 3 -27 0 -41 -6 -35 -16 -39 -8 -13 27 27 36 41 97 34
139 -11 57 -26 58 -83 7 l-51 -46 30 64 c40 85 42 162 4 207 -14 17 -29 31
-33 31 -4 0 -24 -33 -46 -72 -37 -69 -121 -206 -157 -257 -9 -13 -21 -20 -27
-17 -6 4 -19 -11 -30 -32 -30 -58 -71 -104 -88 -98 -15 6 -177 -155 -215 -213
-26 -38 -22 -73 12 -116 45 -57 39 -88 -23 -115 -32 -14 -46 -16 -71 -8 -42
15 -42 14 -13 44 28 27 36 75 18 103 -7 11 -13 11 -32 -3 -26 -18 -47 -20 -69
-6 -12 7 -10 12 12 29 14 11 28 30 31 41 5 19 2 20 -28 14 -28 -5 -38 -1 -61
21 -24 24 -26 32 -22 84 5 70 49 144 88 149 14 2 35 8 46 14 34 16 93 -7 108
-43 12 -29 13 -29 29 -11 9 10 17 24 17 30 0 15 17 16 25 2 3 -5 23 -10 44
-10 40 0 75 24 86 60 10 30 -1 36 -25 15 -19 -17 -27 -18 -77 -7 -64 13 -93
32 -50 32 15 0 36 -5 46 -12 41 -25 75 46 47 100 -13 26 -31 37 -88 56 -33 10
-19 33 28 45 59 15 94 50 94 93 0 23 -3 29 -9 19 -5 -8 -7 -19 -5 -26 3 -6 -1
-17 -8 -23 -11 -9 -14 -2 -14 31 0 23 -6 56 -14 74 -15 33 -6 59 10 33 8 -13
10 -12 10 3 0 21 18 22 70 1 36 -15 40 -20 40 -51 0 -20 -8 -57 -17 -82 -16
-46 -16 -49 5 -92 13 -26 19 -53 16 -67 -7 -26 8 -29 30 -6 18 17 20 42 7 98
-11 47 -28 66 -36 43 -4 -9 3 -28 15 -45 14 -18 20 -40 18 -58 -3 -29 -3 -29
-25 14 -26 49 -29 98 -8 129 8 11 16 35 17 52 1 17 6 31 10 31 4 0 8 -4 8 -9
0 -5 11 -8 25 -5 32 6 32 -10 -1 -49 -19 -23 -24 -37 -19 -56 3 -14 6 -32 7
-38 1 -8 16 -13 39 -13 20 0 40 -6 42 -12 8 -19 28 12 25 37 -2 15 -12 21 -40
23 -43 4 -46 13 -18 49 28 36 26 77 -6 102 -15 12 -35 21 -45 21 -10 0 -37 20
-60 45 -23 25 -49 45 -58 45 -28 0 -116 -64 -119 -86 -2 -12 7 -45 20 -75 30
-70 26 -104 -15 -130 -18 -10 -40 -19 -51 -19 -15 0 -17 5 -11 28 25 93 25 91
-9 117 -18 14 -41 25 -50 25 -15 0 -17 7 -13 45 4 40 0 53 -24 67 -3 1 -13 -3
-22 -10 -14 -12 -15 -51 -2 -72 7 -11 -9 -24 -50 -45 -46 -23 -54 -48 -34
-107 7 -21 10 -40 8 -43 -8 -7 -89 39 -131 74 -22 19 -38 41 -38 53 0 12 14
56 32 99 28 69 30 80 19 107 -14 34 -69 65 -115 65 l-29 0 7 70 c6 67 -2 97
-25 97 -14 0 -10 -28 5 -37 11 -6 10 -12 -5 -27 -17 -18 -19 -18 -19 -2 0 9
-4 14 -10 11 -5 -3 -10 -1 -10 4 0 6 5 11 10 11 6 0 10 9 10 20 0 21 -15 27
-25 9z m53 -112 c2 -12 -3 -17 -17 -17 -15 0 -21 6 -21 21 0 25 33 22 38 -4z
m-108 -92 c0 -14 4 -25 8 -25 10 0 8 -48 -3 -57 -4 -5 -5 -2 -1 5 4 6 2 12 -4
12 -7 0 -9 9 -5 23 4 15 3 18 -3 8 -7 -9 -12 -10 -16 -2 -4 6 -2 11 3 11 6 0
11 7 11 15 0 19 -7 19 -26 1 -19 -19 -18 -25 8 -47 11 -11 19 -22 15 -25 -6
-6 -57 40 -57 52 0 9 53 54 63 54 4 0 7 -11 7 -25z m192 -6 c-3 -24 -2 -24 13
-4 14 17 17 18 25 5 13 -21 12 -36 -3 -48 -10 -8 -16 -6 -26 9 -7 12 -18 18
-26 15 -11 -4 -12 0 -5 18 5 13 6 27 2 31 -4 4 0 6 8 3 9 -3 14 -14 12 -29z
m6 -59 c7 -11 8 -20 3 -20 -6 0 -13 5 -16 10 -4 6 -11 8 -16 5 -5 -3 -6 1 -3
9 8 21 17 20 32 -4z m-257 -7 c13 -16 12 -17 -3 -4 -17 13 -22 21 -14 21 2 0
10 -8 17 -17z m852 -13 c27 -32 20 -42 -20 -25 -47 20 -51 24 -33 35 22 14 34
12 53 -10z m-553 6 c0 -3 -4 -8 -10 -11 -5 -3 -10 -1 -10 4 0 6 5 11 10 11 6
0 10 -2 10 -4z m-140 -47 c0 -10 -6 -19 -14 -19 -9 0 -12 8 -8 25 5 28 22 24
22 -6z m23 1 c3 -11 2 -22 -2 -24 -4 -3 -8 6 -9 20 -2 29 4 31 11 4z m357 10
c0 -5 -2 -10 -4 -10 -3 0 -8 5 -11 10 -3 6 -1 10 4 10 6 0 11 -4 11 -10z
m-450 -24 c0 -3 -4 -8 -10 -11 -5 -3 -10 -1 -10 4 0 6 5 11 10 11 6 0 10 -2
10 -4z m137 -2 c-3 -3 -12 -4 -19 -1 -8 3 -5 6 6 6 11 1 17 -2 13 -5z m323
-25 c0 -5 -4 -9 -10 -9 -5 0 -10 7 -10 16 0 8 5 12 10 9 6 -3 10 -10 10 -16z
m-350 -69 c-18 -12 -68 -12 -95 0 -14 6 0 9 45 9 45 1 60 -2 50 -9z m433 -4
c3 -8 0 -19 -7 -25 -10 -9 -12 -6 -8 14 5 29 8 31 15 11z m-1480 -86 c28 -33
157 -223 157 -232 0 -23 -26 0 -81 72 -55 71 -79 93 -79 74 0 -6 66 -118 82
-139 4 -5 21 -26 38 -46 37 -45 40 -72 4 -38 -51 48 -134 157 -134 176 0 11
-8 35 -17 54 -9 18 -18 58 -20 89 -4 52 -3 54 12 35 9 -11 26 -31 38 -45z
m1073 35 c15 -13 30 -22 33 -19 2 2 -4 11 -15 18 -10 8 -16 17 -13 21 4 3 20
-10 36 -29 17 -18 40 -37 52 -41 37 -11 12 -27 -33 -20 l-41 7 29 -31 c25 -26
27 -31 11 -31 -17 0 -17 -2 3 -23 12 -13 22 -26 22 -29 0 -12 -69 -38 -102
-38 l-33 -1 28 -23 28 -23 -30 -60 c-17 -33 -31 -67 -31 -74 -1 -8 -7 -25 -14
-38 l-14 -25 -7 35 c-4 19 -21 63 -38 98 l-30 64 21 18 c29 23 28 29 -8 29
-16 0 -45 8 -65 17 l-35 17 27 28 c23 24 24 28 8 28 -17 0 -17 2 3 23 30 32
28 39 -12 32 -19 -4 -36 -2 -40 3 -6 9 13 22 43 28 7 1 30 16 50 33 49 40 123
43 167 6z m978 8 c4 -9 -7 -60 -24 -114 -27 -85 -39 -106 -94 -171 -67 -79
-94 -104 -101 -96 -3 3 6 20 19 39 79 109 126 183 126 196 0 19 -10 8 -75 -77
-27 -36 -50 -67 -52 -69 -2 -3 -8 0 -15 7 -8 8 -7 17 6 34 9 13 42 61 72 108
57 85 113 158 125 159 4 1 10 -6 13 -16z m-1150 -7 c-21 -15 -30 -14 -19 3 3
6 14 11 23 11 13 0 13 -2 -4 -14z m-99 -111 c-16 -8 -38 -14 -47 -15 -9 0 -25
-3 -35 -7 -12 -6 -1 -10 37 -14 43 -5 50 -8 33 -14 -28 -9 -28 -9 2 -49 34
-45 32 -56 -5 -21 l-29 28 3 -30 c5 -37 33 -93 47 -93 6 0 6 6 0 18 -6 12 -5
21 5 30 11 10 17 5 34 -30 11 -23 20 -48 20 -55 0 -7 5 -13 10 -13 6 0 10 -5
10 -12 0 -6 -11 -1 -25 12 l-25 24 4 -30 c3 -16 8 -45 11 -65 3 -21 13 -43 22
-50 15 -13 15 -10 9 24 -8 43 -4 45 24 15 17 -18 20 -30 15 -58 -4 -19 -10
-39 -15 -45 -5 -5 -11 -27 -15 -47 -9 -46 10 -53 20 -8 4 16 11 32 16 35 5 4
9 19 9 36 0 16 5 29 10 29 6 0 10 -8 10 -18 0 -10 5 -23 11 -29 13 -13 8 -83
-6 -84 -5 0 -13 15 -16 33 l-6 33 -3 -35 c-2 -19 -4 -41 -4 -49 -2 -22 -26
-25 -27 -4 0 14 -3 12 -11 -7 -10 -23 -12 -19 -23 45 -6 39 -20 97 -31 130
-17 52 -19 56 -22 30 -6 -65 -15 -56 -27 25 -8 47 -11 88 -9 92 3 5 1 8 -4 8
-6 0 -39 29 -75 65 -44 43 -67 60 -69 50 -2 -11 -10 -9 -35 11 -18 14 -33 29
-33 34 0 9 83 39 114 41 12 1 -8 7 -44 15 -36 7 -75 11 -86 9 -14 -3 -24 1
-28 10 -5 13 16 15 152 14 141 -1 154 -2 127 -14z m665 2 c0 -25 -219 -29
-270 -5 -34 16 -31 16 118 17 118 1 152 -2 152 -12z m-949 -29 c11 -21 11 -22
-4 -9 -10 7 -17 17 -17 22 0 15 9 10 21 -13z m969 1 c-7 -11 -14 -19 -16 -16
-7 7 7 37 17 37 6 0 5 -9 -1 -21z m-963 -58 l52 -58 -37 13 c-47 17 -74 17
-107 2 -29 -13 -45 -1 -45 35 0 23 44 67 67 67 10 0 42 -26 70 -59z m1050 37
c15 -14 23 -33 23 -56 0 -31 -2 -34 -22 -27 -50 16 -86 16 -121 1 -20 -8 -37
-13 -37 -9 0 3 20 26 45 51 25 25 45 49 45 54 0 16 44 7 67 -14z m-184 -8 c15
-7 27 -18 27 -23 0 -10 -21 -29 -52 -47 -14 -8 -16 -7 -12 5 11 27 -13 16 -40
-20 -15 -20 -32 -32 -38 -29 -6 4 -8 2 -4 -4 3 -6 -9 -23 -28 -39 -37 -30 -44
-58 -51 -198 -3 -76 3 -94 46 -140 26 -28 27 -31 9 -32 -11 -1 -22 2 -25 7 -3
5 -13 6 -22 3 -10 -4 -14 -2 -9 5 3 6 -2 34 -13 63 -17 43 -18 55 -7 73 7 13
10 36 6 61 l-6 40 -16 -36 c-20 -45 -33 -119 -21 -119 10 0 43 -63 43 -80 0
-6 -6 -10 -14 -10 -15 0 -26 21 -26 51 0 10 -4 19 -9 19 -12 0 -23 -29 -15
-41 3 -6 3 -18 -1 -27 -7 -14 -9 -13 -15 8 -4 14 -3 33 2 42 5 10 4 19 -2 23
-5 3 -10 24 -10 46 0 22 -4 38 -9 35 -5 -3 -14 0 -20 8 -8 10 -6 19 9 36 14
16 18 31 14 49 l-6 26 17 -23 c11 -15 15 -32 11 -48 -4 -14 -2 -24 4 -24 5 0
10 6 10 14 0 8 4 16 10 18 13 4 24 108 11 108 -5 0 -14 -8 -20 -17 -5 -10 -13
-14 -17 -10 -5 5 -4 11 1 15 6 4 21 29 35 56 17 35 32 50 48 53 22 3 22 2 8
-19 -17 -24 -20 -38 -8 -38 9 0 32 49 32 70 0 8 8 27 17 40 l16 25 -29 -25
c-16 -14 -32 -29 -36 -35 -20 -27 -5 14 16 45 l24 35 -22 13 c-18 11 -8 12 69
9 50 -2 102 -10 118 -17z m-1493 -25 c7 -8 17 -15 23 -15 9 0 61 -44 201 -172
61 -56 22 -47 -59 12 -37 28 -72 50 -76 50 -19 0 -5 -17 57 -69 35 -29 63 -56
60 -58 -7 -8 -127 69 -161 103 -34 34 -75 112 -75 144 0 24 13 26 30 5z m2230
-2 c0 -32 -47 -117 -81 -149 -45 -42 -150 -107 -158 -98 -3 3 7 16 24 28 47
34 110 94 105 100 -6 5 -83 -44 -115 -74 -11 -10 -33 -22 -50 -26 -29 -6 -28
-5 15 32 25 21 68 60 95 85 53 49 145 118 158 119 4 0 7 -8 7 -17z m-1310 -3
c0 -5 -2 -10 -4 -10 -3 0 -8 5 -11 10 -3 6 -1 10 4 10 6 0 11 -4 11 -10z m380
6 c0 -2 -7 -7 -16 -10 -8 -3 -12 -2 -9 4 6 10 25 14 25 6z m-294 -108 c37 -68
45 -88 35 -88 -10 0 -91 114 -91 129 0 28 30 6 56 -41z m244 47 c0 -5 -35 -60
-66 -103 -9 -12 -18 -33 -20 -45 -2 -12 -13 -48 -24 -81 -12 -32 -19 -66 -17
-75 3 -11 5 -9 6 7 2 34 31 28 31 -7 0 -17 5 -33 10 -36 6 -3 10 -27 10 -53 0
-34 -3 -43 -10 -32 -5 8 -10 27 -10 42 0 15 -4 30 -10 33 -6 4 -10 -7 -10 -25
0 -20 -4 -29 -11 -24 -7 4 -9 0 -5 -14 4 -11 3 -23 -3 -26 -5 -4 -8 39 -7 107
2 82 7 120 19 144 9 18 17 38 17 46 0 18 29 83 54 120 16 23 46 38 46 22z
m-682 -60 c-39 -26 -73 -31 -98 -15 -12 8 -9 10 11 10 15 0 42 7 60 15 53 23
67 17 27 -10z m289 -53 c14 -24 23 -45 20 -48 -3 -3 -11 4 -17 17 -7 12 -31
42 -54 67 l-41 46 33 -20 c19 -10 45 -38 59 -62z m551 55 c-14 -12 -40 -42
-57 -66 -34 -48 -38 -48 -17 3 7 18 29 45 47 59 41 32 65 36 27 4z m275 0 c26
-7 44 -16 41 -20 -14 -13 -61 -7 -85 12 -13 10 -31 21 -39 25 -18 7 18 0 83
-17z m-1293 -96 c0 -11 -4 -10 -20 4 -33 30 -32 12 1 -34 39 -52 30 -66 -15
-22 -35 34 -64 110 -51 131 9 14 85 -56 85 -79z m1504 73 c3 -8 2 -24 -4 -33
-5 -10 -6 -21 -3 -25 3 -3 1 -6 -5 -6 -7 0 -12 -8 -12 -17 0 -10 -16 -31 -35
-46 -41 -32 -46 -22 -10 21 30 35 35 64 7 39 -36 -33 -31 -3 6 39 42 48 47 50
56 28z m-1951 -11 c-7 -2 -19 -2 -25 0 -7 3 -2 5 12 5 14 0 19 -2 13 -5z
m2334 1 c-3 -3 -12 -4 -19 -1 -8 3 -5 6 6 6 11 1 17 -2 13 -5z m-2273 -32 c16
3 23 1 19 -5 -4 -6 0 -8 11 -4 26 10 205 -107 206 -134 0 -13 -35 -4 -54 13
-24 21 -111 68 -127 68 -22 0 18 -34 75 -65 87 -47 70 -61 -28 -25 -68 26
-125 71 -149 117 -15 29 -16 37 -6 44 8 4 16 3 20 -3 4 -6 18 -9 33 -6z m2238
-30 c-21 -45 -53 -74 -117 -105 -101 -50 -163 -43 -67 8 58 30 87 53 80 61 -4
3 -45 -15 -93 -41 -140 -76 -120 -34 27 58 51 32 82 45 94 40 10 -3 15 -2 12
3 -4 5 13 10 37 11 l44 1 -17 -36z m-1182 -31 c10 -22 22 -59 25 -83 l5 -43
-24 60 c-30 76 -39 105 -32 105 3 0 15 -18 26 -39z m695 -53 c-3 -32 -13 -51
-44 -82 -47 -48 -54 -66 -13 -36 37 27 72 18 72 -20 0 -32 -13 -45 -55 -57
-29 -8 -29 -8 15 -13 38 -4 46 -9 48 -28 5 -32 -15 -53 -43 -46 -13 3 -26 1
-29 -5 -4 -6 4 -13 18 -17 25 -6 39 -35 29 -60 -7 -19 -42 -18 -65 3 -23 21
-33 11 -16 -17 11 -19 10 -23 -9 -39 -12 -10 -19 -22 -15 -25 3 -4 -2 -4 -12
0 -9 4 -23 18 -29 33 l-11 26 -4 -30 c-4 -34 -16 -45 -43 -38 -12 4 -19 14
-19 30 0 13 -4 21 -10 18 -5 -3 -10 -14 -10 -24 0 -23 -34 -33 -56 -16 -12 8
-15 19 -10 38 4 16 2 27 -4 27 -5 0 -10 -9 -10 -20 0 -11 -4 -20 -10 -20 -13
0 -13 107 0 115 6 3 13 -1 16 -10 8 -20 56 -45 88 -45 57 0 126 56 126 103 0
7 -13 32 -28 53 -40 54 -42 64 -22 104 22 42 136 154 150 145 5 -3 7 -24 5
-47z m-1239 0 c105 -111 112 -133 64 -193 -17 -21 -30 -50 -30 -65 0 -85 131
-130 197 -68 13 12 26 18 30 14 4 -4 9 -33 10 -64 2 -52 1 -55 -13 -38 -7 11
-14 23 -14 28 0 4 -5 8 -10 8 -7 0 -7 -6 0 -19 16 -31 2 -53 -33 -49 -24 2
-33 9 -38 28 l-6 25 -8 -27 c-7 -28 -36 -45 -56 -32 -6 4 -9 19 -5 38 5 29 5
30 -9 12 -8 -11 -15 -23 -15 -28 0 -14 -24 -8 -49 11 -23 17 -23 19 -6 44 18
28 6 38 -15 12 -7 -8 -24 -15 -39 -15 -23 0 -27 5 -29 30 -2 24 3 32 23 40 32
12 33 32 2 25 -29 -8 -50 15 -45 47 2 19 9 23 41 23 20 0 37 3 37 8 0 4 -6 7
-14 7 -20 0 -53 31 -61 58 -10 34 30 46 73 21 44 -25 40 -11 -12 40 -34 34
-45 52 -48 82 -3 34 -1 39 17 39 12 0 39 -19 61 -42z m-161 2 c32 -20 93 -80
81 -80 -4 0 -24 11 -44 25 -51 35 -74 32 -32 -4 19 -16 32 -32 29 -35 -8 -8
-96 39 -119 62 -8 8 -9 12 -3 8 9 -5 11 1 7 23 -6 29 -5 30 22 25 16 -3 42
-14 59 -24z m1565 -11 c-8 -14 -8 -19 -1 -15 6 4 9 2 6 -6 -7 -18 -101 -66
-114 -58 -7 4 1 15 20 29 45 33 27 38 -26 7 -25 -15 -45 -23 -45 -19 0 17 102
88 133 93 37 6 43 0 27 -31z m300 -10 c-12 -8 -9 -9 13 -5 36 8 35 -9 -6 -56
-35 -39 -110 -70 -199 -83 -77 -12 -57 10 42 46 86 30 119 49 87 49 -8 0 -40
-9 -72 -20 -68 -23 -65 -23 -65 -9 0 11 59 39 145 70 57 21 77 24 55 8z m90 1
c0 -5 -2 -10 -4 -10 -3 0 -8 5 -11 10 -3 6 -1 10 4 10 6 0 11 -4 11 -10z
m-2203 -38 c95 -48 98 -69 3 -32 -28 11 -58 20 -66 20 -33 0 1 -20 86 -51 82
-29 113 -49 75 -49 -62 0 -225 54 -225 74 0 7 -11 23 -25 36 -14 13 -25 27
-25 31 0 19 118 0 177 -29z m2176 3 c-3 -9 -8 -14 -10 -11 -3 3 -2 9 2 15 9
16 15 13 8 -4z m-1950 -39 c20 -8 37 -20 37 -25 0 -13 -2 -13 -36 -1 -23 9
-25 9 -15 -4 7 -8 26 -18 42 -21 27 -6 46 -21 37 -30 -7 -7 -140 25 -152 37
-7 7 -15 21 -19 30 -8 23 29 50 52 38 9 -5 33 -16 54 -24z m597 9 c0 -11 -9
-38 -20 -59 -10 -22 -17 -42 -15 -46 2 -4 -1 -7 -8 -8 -7 0 -23 -4 -37 -8
l-25 -7 26 29 c34 37 49 67 49 97 0 14 6 24 15 24 9 0 15 -9 15 -22z m1026 11
c19 -20 18 -29 -9 -58 -16 -17 -39 -28 -72 -32 -26 -4 -54 -10 -63 -13 -9 -4
-13 -1 -10 7 2 8 19 19 38 25 19 6 36 17 38 23 3 9 -3 10 -23 2 -33 -13 -38
-13 -33 1 3 8 98 56 116 59 2 0 10 -6 18 -14z m-1090 -52 c-3 -9 -6 -18 -6
-20 0 -2 -17 -4 -37 -4 l-38 1 35 19 c43 24 54 25 46 4z m528 -7 c3 4 6 1 6
-6 0 -21 -64 -9 -68 12 -4 17 -2 17 26 3 16 -8 32 -12 36 -9z m-439 -36 c-6
-28 -23 -40 -37 -26 -3 3 2 21 10 40 19 41 37 31 27 -14z m-1002 12 c-7 -2
-19 -2 -25 0 -7 3 -2 5 12 5 14 0 19 -2 13 -5z m145 -12 c103 -24 108 -43 10
-35 -90 8 -84 -10 9 -25 114 -18 110 -32 -7 -29 -104 4 -105 4 -138 37 -32 32
-34 51 -6 51 8 0 14 4 14 8 0 14 41 11 118 -7z m2152 10 c-33 -6 -34 -7 -11
-15 l24 -8 -38 -36 -39 -37 -105 -3 c-119 -4 -123 9 -9 28 37 7 70 16 74 21 7
12 -68 11 -101 -1 -22 -9 -26 -8 -23 7 4 21 119 49 203 50 46 0 52 -2 25 -6z
m-2340 -17 c0 -8 -5 -12 -10 -9 -6 4 -8 11 -5 16 9 14 15 11 15 -7z m1171 -27
c-8 -8 -11 -7 -11 4 0 9 3 19 7 23 4 4 9 2 11 -4 3 -7 -1 -17 -7 -23z m-693 8
c13 -13 -14 -25 -43 -19 -19 3 -35 1 -39 -5 -4 -7 1 -12 13 -12 37 -2 41 -4
44 -14 3 -12 -104 -6 -120 7 -7 6 -13 16 -13 22 0 29 25 38 90 31 35 -3 66 -8
68 -10z m1574 -3 c6 -6 5 -17 -3 -30 -9 -15 -26 -21 -61 -24 -27 -1 -56 0 -65
3 -15 5 -15 6 1 12 10 4 29 7 42 7 15 0 23 4 19 11 -4 6 -23 9 -43 7 -46 -4
-55 19 -10 25 45 6 108 1 120 -11z m328 4 c0 -2 -8 -10 -17 -17 -16 -13 -17
-12 -4 4 13 16 21 21 21 13z m-2355 -16 c3 -6 -1 -7 -9 -4 -18 7 -21 14 -7 14
6 0 13 -4 16 -10z m853 -37 c-3 -32 -44 -46 -54 -19 -10 26 4 46 31 46 23 0
26 -4 23 -27z m678 12 c8 -20 -13 -45 -37 -45 -14 0 -19 7 -19 30 0 25 4 30
25 30 14 0 28 -7 31 -15z m-1082 -42 c3 -4 -6 -12 -21 -19 l-28 -12 38 -1 c56
-1 45 -17 -20 -27 -69 -11 -89 -8 -97 13 -9 23 7 36 56 44 62 10 64 10 72 2z
m732 -8 c12 -9 14 -14 6 -15 -7 0 -10 -5 -7 -10 3 -6 0 -17 -9 -25 -19 -19
-26 -19 -26 0 0 8 -7 15 -15 15 -20 0 -19 20 3 36 22 17 24 17 48 -1z m816 -6
c22 -12 12 -47 -16 -51 -30 -4 -136 14 -136 24 0 4 16 8 36 8 21 0 33 4 29 10
-3 6 -15 10 -26 10 -12 0 -17 4 -14 11 8 12 98 3 127 -12z m-1755 1 c27 0 42
-4 38 -10 -3 -5 -21 -10 -38 -10 -53 0 -107 -12 -101 -22 3 -5 35 -8 70 -7 39
1 70 -3 76 -9 9 -9 7 -12 -8 -13 -10 0 -55 -4 -98 -8 -112 -12 -182 18 -138
59 24 23 55 29 111 24 24 -2 64 -4 88 -4z m798 -9 c-4 -12 6 -45 24 -83 l29
-63 -21 -7 c-12 -3 -38 -6 -57 -7 -27 -1 -36 3 -37 17 -1 9 -5 29 -8 44 -6 23
-3 29 24 42 24 13 31 23 31 46 0 17 5 30 11 30 6 0 8 -8 4 -19z m1223 -1 c2
-6 10 -10 17 -10 20 0 27 -30 9 -37 -12 -4 -13 -8 -3 -13 8 -5 4 -8 -12 -9
-120 -6 -243 4 -234 20 4 5 37 9 76 9 38 0 69 4 69 9 0 10 -49 21 -96 21 -64
0 -45 19 23 23 84 5 147 -1 151 -13z m-914 -57 c10 -21 25 -50 32 -65 32 -60
8 -83 -39 -37 -31 32 -32 32 -35 10 -2 -12 2 -28 8 -36 6 -8 9 -19 6 -24 -4
-5 -2 -12 4 -16 18 -11 1 -22 -27 -18 -24 3 -25 2 -8 -6 38 -17 48 -37 35 -73
-9 -26 -8 -46 3 -95 9 -35 13 -63 11 -63 -3 0 -16 26 -30 58 -16 38 -35 64
-55 76 -17 10 -26 22 -22 29 4 6 6 24 5 39 -1 17 3 28 10 29 12 0 -18 17 -34
18 -11 1 -21 -67 -13 -86 5 -10 7 -26 6 -35 -1 -10 3 -18 8 -18 6 0 11 -5 11
-11 0 -45 -58 60 -59 107 -1 12 -8 28 -18 35 -15 13 -16 11 -9 -13 4 -17 2
-28 -4 -28 -17 0 -23 29 -10 45 9 11 8 24 -5 59 -9 24 -15 52 -13 62 2 10 -7
28 -20 41 -13 13 -20 27 -17 33 11 18 64 -15 66 -42 0 -10 2 -10 6 0 8 21 21
13 28 -18 4 -19 2 -36 -5 -45 -12 -15 -5 -55 10 -55 5 0 11 6 14 13 3 6 4 -1
1 -16 -4 -19 -2 -26 5 -22 5 3 10 20 10 37 0 28 2 30 26 24 24 -6 25 -6 10 9
-20 21 -20 40 0 74 16 27 59 60 79 61 6 0 19 -17 29 -37z m-889 -3 c-3 -5 -13
-10 -21 -10 -8 0 -14 -4 -14 -10 0 -5 12 -10 28 -10 l27 0 -33 -20 c-43 -26
-66 -25 -80 4 -13 28 -2 41 38 49 45 8 61 7 55 -3z m1468 -1 c36 -10 43 -21
31 -53 -8 -21 -34 -20 -79 1 -45 22 -45 33 0 23 30 -7 34 -6 24 6 -6 8 -18 14
-25 14 -8 0 -14 5 -14 10 0 13 15 13 63 -1z m-1623 -29 c-7 -5 -40 -12 -73
-15 -40 -5 -56 -10 -49 -17 7 -7 25 -7 56 1 55 13 76 14 76 2 0 -11 -76 -27
-173 -36 -62 -6 -68 -5 -65 11 5 29 45 44 153 59 83 11 99 10 75 -5z m1801 4
c87 -8 133 -24 148 -53 9 -16 8 -22 -8 -31 -11 -5 -30 -10 -42 -10 -37 0 -189
50 -189 61 0 7 9 9 23 4 12 -4 39 -10 61 -12 60 -8 35 12 -34 27 -33 7 -60 17
-60 22 0 6 6 8 14 5 8 -3 47 -9 87 -13z m-1615 -39 c-20 -31 -10 -32 20 -4 41
38 46 15 8 -34 -37 -47 -60 -57 -82 -35 -20 20 -14 42 20 70 41 34 55 36 34 3z
m1360 11 c10 -8 15 -18 11 -22 -4 -4 -17 2 -29 14 -25 25 -13 30 18 8z m-13
-37 c51 -44 58 -59 28 -59 -10 0 -35 20 -55 44 -57 70 -46 77 27 15z m-1282
-28 c-18 -32 -13 -36 14 -11 14 13 28 21 31 18 9 -10 -35 -88 -50 -88 -52 0
-60 35 -19 88 27 36 44 31 24 -7z m1245 -6 c22 -38 24 -48 13 -61 -20 -24 -51
-12 -73 28 -23 45 -13 63 16 28 17 -22 19 -22 15 -5 -3 11 -8 28 -12 38 -15
36 15 15 41 -28z m286 9 c88 -37 139 -74 104 -74 -30 0 -223 109 -194 110 3 0
44 -16 90 -36z m-1787 -19 c6 -22 16 -50 23 -62 6 -12 12 -30 12 -41 0 -11 7
-25 15 -32 8 -7 15 -20 15 -28 0 -17 -148 -271 -159 -273 -3 -1 -37 -3 -76 -4
-38 -2 -83 -9 -99 -15 -39 -14 -65 -4 -72 28 -3 15 -12 40 -21 55 -8 16 -13
38 -10 49 4 13 -2 31 -14 46 -25 32 -24 70 2 98 19 21 20 26 9 54 -14 34 -1
60 31 60 10 0 35 18 56 41 33 35 42 40 69 36 20 -3 40 0 54 10 14 10 32 13 53
9 18 -3 39 -1 47 4 30 20 55 7 65 -35z m54 16 c-14 -11 -26 -15 -28 -9 -4 12
17 28 38 28 8 0 3 -8 -10 -19z m279 -23 l-5 -32 24 30 24 29 -6 -45 c-10 -61
-22 -82 -47 -78 -38 6 -45 32 -20 83 26 53 36 58 30 13z m123 -36 c3 -60 -13
-85 -49 -76 -18 5 -22 13 -22 44 0 44 8 70 21 70 5 0 9 -9 9 -20 0 -11 5 -20
10 -20 6 0 10 17 10 37 0 57 18 27 21 -35z m840 26 c2 -30 3 -35 6 -15 6 38
31 34 38 -7 9 -48 4 -67 -22 -77 -33 -12 -53 13 -53 66 0 79 29 109 31 33z
m123 9 c29 -71 29 -76 1 -89 -33 -15 -48 0 -63 60 -12 50 1 64 23 25 l16 -28
-6 33 c-9 43 11 42 29 -1z m306 -19 c0 -12 -13 -10 -69 13 -71 30 -64 43 9 17
33 -12 60 -26 60 -30z m-1654 4 c-14 -14 -29 -23 -32 -19 -10 10 37 58 48 50
6 -3 -2 -17 -16 -31z m472 -12 c14 -59 8 -80 -23 -80 -29 0 -31 3 -40 63 -8
51 8 66 25 25 8 -21 9 -20 9 10 1 48 16 39 29 -18z m667 7 l-5 -32 12 28 c17
40 28 33 28 -17 0 -47 -17 -70 -47 -64 -15 3 -18 13 -16 51 1 27 4 55 7 63 10
26 26 5 21 -29z m-1131 -38 c-24 -27 -29 -16 -8 16 10 16 20 23 22 16 2 -7 -4
-21 -14 -32z m636 12 c0 -5 -7 -11 -15 -15 -8 -3 -15 -18 -15 -33 0 -15 -11
-41 -24 -56 l-25 -29 4 67 c3 50 8 70 22 80 18 13 53 4 53 -14z m1182 -36 c21
-14 38 -29 38 -34 0 -5 3 -16 6 -24 3 -9 -13 -35 -40 -66 l-46 -52 16 -37 c8
-20 19 -41 25 -47 10 -10 -53 -45 -80 -45 -12 1 -11 5 7 19 30 26 28 28 -14
27 -24 -1 -39 4 -42 13 -4 11 3 13 32 8 49 -8 43 14 -7 28 -20 6 -42 16 -49
24 -11 12 -10 13 4 8 9 -3 33 -9 52 -13 54 -10 45 12 -11 28 -25 7 -48 19 -50
25 -3 9 4 10 29 2 46 -13 68 -11 68 5 0 9 -17 16 -48 20 -27 3 -57 13 -68 21
-18 14 -18 14 6 14 14 0 43 -6 64 -14 48 -17 56 -13 56 28 0 32 0 32 -100 61
-135 39 -151 64 -20 31 69 -17 120 -37 120 -47 0 -4 7 -8 16 -8 31 0 6 25 -42
43 -27 10 -56 25 -64 33 -22 22 96 -21 142 -51z m-1097 0 c7 -52 9 -55 36 -55
34 0 39 -22 13 -58 -9 -13 -13 -29 -10 -37 3 -8 2 -15 -3 -15 -11 0 -32 25
-30 36 7 39 -1 43 -37 19 -20 -14 -43 -33 -50 -43 -12 -15 -13 -14 -14 14 0
17 7 37 15 44 10 9 13 24 8 56 -5 38 -2 49 17 69 36 38 48 32 55 -30z m-635
38 c0 -3 -14 -28 -31 -55 -17 -27 -28 -52 -25 -56 4 -4 12 1 17 11 17 29 58
73 59 61 0 -17 -45 -97 -57 -101 -16 -6 -45 53 -39 75 11 35 76 90 76 65z
m1458 -45 c66 -91 73 -104 67 -131 -10 -37 -50 -42 -73 -8 -22 31 -82 139 -82
146 0 15 20 0 46 -35 47 -64 56 -54 14 15 -50 81 -29 90 28 13z m112 -18 c25
-6 55 -14 68 -17 23 -6 38 -20 29 -29 -5 -5 -100 19 -149 38 -30 11 -39 33
-10 24 9 -3 37 -10 62 -16z m-1502 -22 c-5 -18 -12 -41 -15 -50 -3 -10 -1 -18
5 -18 5 0 16 20 23 45 7 25 18 44 24 42 12 -5 11 -14 -13 -96 -23 -78 -51
-104 -82 -76 -11 10 -20 14 -20 10 0 -5 -3 -6 -6 -3 -6 6 39 120 62 156 21 33
34 27 22 -10z m895 25 c3 -5 0 -19 -6 -33 l-10 -25 -5 23 c-3 20 -8 22 -35 17
-30 -6 -31 -5 -13 10 21 16 62 20 69 8z m343 -10 c1 -10 5 -31 9 -47 6 -22 5
-28 -5 -24 -21 7 -34 56 -20 73 16 19 16 19 16 -2z m63 -38 c27 -58 27 -72 0
-53 -32 21 -61 123 -29 103 4 -2 17 -25 29 -50z m-1192 -20 c-3 -19 -2 -37 3
-40 5 -3 13 12 16 35 10 60 30 45 26 -21 -2 -50 -18 -79 -43 -79 -20 0 -39 35
-39 70 0 49 8 70 27 70 12 0 14 -8 10 -35z m156 -17 c6 -30 4 -59 -4 -89 -7
-24 -13 -50 -12 -57 1 -19 -42 -25 -81 -12 -40 13 -46 29 -16 48 12 7 20 23
20 41 0 58 12 92 39 106 37 20 45 14 54 -37z m787 37 c43 -22 41 -67 -4 -120
-19 -22 -37 -37 -41 -33 -21 21 -16 168 6 168 5 0 23 -7 39 -15z m74 -7 c9
-35 7 -45 -9 -52 -12 -4 -15 3 -15 34 0 43 14 54 24 18z m59 2 c5 -20 -15 -45
-26 -33 -4 3 -7 17 -7 30 0 28 26 31 33 3z m-870 -76 c1 -19 -4 -39 -11 -46
-9 -9 -12 2 -12 53 1 50 3 60 11 46 6 -11 11 -34 12 -53z m651 -8 c5 -42 4
-47 -9 -36 -15 12 -21 71 -8 83 9 10 9 8 17 -47z m-1094 37 c0 -5 -18 -37 -40
-73 -21 -36 -48 -82 -59 -102 -12 -20 -26 -40 -32 -43 -18 -12 -23 4 -7 22 8
10 39 60 68 111 48 81 70 109 70 85z m1436 -32 c65 -38 91 -85 74 -136 -6 -19
-16 -37 -21 -40 -15 -10 -23 26 -11 46 17 27 15 29 -17 19 -26 -7 -30 -5 -35
16 -7 25 -52 54 -86 54 -35 0 -79 -28 -97 -63 -16 -28 -18 -62 -19 -262 0
-197 -3 -236 -18 -268 -26 -58 -89 -115 -133 -122 -21 -3 -45 -8 -54 -9 -35
-7 -119 14 -158 38 -32 20 -41 32 -41 54 0 51 12 55 66 27 106 -54 187 -39
234 45 25 44 25 47 22 253 -2 224 1 243 53 305 64 76 155 92 241 43z m614 -8
c34 -23 40 -33 40 -71 0 -66 -81 -106 -137 -67 -19 13 -21 13 -26 -5 -6 -25
-26 -26 -33 -2 -3 9 -10 27 -16 39 -13 27 -2 49 17 33 15 -12 19 -7 28 30 7
27 51 59 82 60 11 0 32 -8 45 -17z m-1451 -55 c0 -35 -2 -39 -9 -21 -8 19 -3
63 6 63 2 0 4 -19 3 -42z m191 10 c0 -5 -9 -3 -20 4 -11 7 -20 16 -20 20 0 5
9 3 20 -4 11 -7 20 -16 20 -20z m-606 3 c17 -18 16 -21 -10 -60 -14 -23 -29
-41 -33 -41 -9 1 -55 40 -50 43 2 2 16 11 32 20 15 10 27 26 27 37 0 25 12 25
34 1z m-160 -7 c9 -22 8 -24 -9 -18 -8 4 -15 12 -15 20 0 19 16 18 24 -2z
m923 -16 c-3 -8 -6 -5 -6 6 -1 11 2 17 5 13 3 -3 4 -12 1 -19z m685 2 c-5 -20
9 -50 23 -50 16 0 28 -41 15 -54 -6 -6 -16 -3 -28 7 -21 20 -82 23 -100 5 -17
-17 -19 -10 -14 51 l4 53 34 -5 c18 -3 36 -1 40 4 8 14 30 5 26 -11z m-920 -5
c0 -5 -5 -11 -11 -13 -6 -2 -11 4 -11 13 0 9 5 15 11 13 6 -2 11 -8 11 -13z
m392 -29 c21 -39 13 -62 -17 -50 -12 4 -16 17 -15 49 3 50 6 50 32 1z m291 14
c27 -28 27 -31 17 -82 -5 -29 -8 -55 -6 -58 5 -4 9 1 34 40 9 13 11 13 21 -3
5 -9 15 -15 20 -11 7 4 9 -3 7 -17 -2 -18 -13 -25 -48 -34 -25 -7 -59 -19 -76
-28 l-31 -16 -6 47 c-4 37 -12 53 -42 80 -42 39 -40 60 8 91 44 28 68 26 102
-9z m-946 -42 c1 -20 -28 -31 -61 -23 -24 6 -24 6 12 44 33 35 35 36 42 17 3
-12 6 -29 7 -38z m-383 10 c51 -30 77 -53 88 -75 15 -31 36 -45 36 -23 0 6 7
10 16 10 11 0 14 -6 9 -22 -7 -22 -6 -22 7 -4 20 26 31 6 17 -31 -9 -24 -12
-26 -22 -12 -7 9 -23 20 -37 24 -13 4 -36 16 -50 25 -14 10 -58 37 -97 59 -40
23 -73 44 -73 47 0 10 21 44 27 44 3 0 39 -19 79 -42z m210 -5 c18 -16 34 -36
34 -45 0 -26 -13 -22 -51 12 -35 33 -59 33 -59 0 0 -21 -25 -38 -38 -26 -3 4
-1 15 6 24 7 9 16 27 22 40 13 30 44 28 86 -5z m1597 -20 c-3 -7 -9 -13 -14
-13 -5 0 -32 -10 -61 -23 -142 -63 -139 -62 -149 -46 -6 10 -9 10 -9 2 0 -7
-7 -13 -15 -13 -8 0 -14 -5 -12 -11 1 -6 -4 -14 -10 -16 -7 -3 -13 2 -13 11 0
9 -7 16 -15 16 -8 0 -15 -9 -15 -20 0 -21 -15 -27 -25 -10 -11 18 -23 11 -18
-10 4 -14 0 -20 -11 -20 -19 0 -20 4 -2 55 8 21 20 41 27 44 8 2 18 10 22 17
14 24 77 14 77 -12 0 -17 5 -17 33 -2 12 6 63 28 112 49 87 36 111 36 98 2z
m-1421 -25 c-15 -15 -16 -32 -2 -23 19 12 51 -5 45 -25 -5 -16 -1 -17 40 -13
25 3 45 2 45 -3 0 -5 -26 -11 -57 -12 -31 -2 -65 -8 -74 -13 -33 -17 -33 -9 2
27 32 34 32 36 9 29 -14 -4 -27 -11 -30 -15 -6 -9 -56 -7 -66 3 -4 3 -14 2
-24 -3 -18 -10 -30 -4 -30 13 0 5 15 7 35 4 21 -3 40 -1 48 6 31 28 85 51 59
25z m643 -4 c14 -9 25 -23 25 -30 0 -22 -28 -28 -45 -10 -15 15 -35 22 -35 12
0 -3 11 -17 25 -32 28 -30 27 -41 -3 -25 -12 6 -39 11 -61 11 -24 0 -41 5 -41
11 0 8 12 10 35 6 19 -3 35 -2 35 4 0 5 -4 9 -10 9 -5 0 -10 5 -10 10 0 6 7
10 15 10 8 0 20 9 27 20 15 24 13 24 43 4z m184 -18 c22 -24 26 -42 23 -108
-3 -57 -22 -46 -22 12 0 37 -5 55 -20 70 -20 20 -27 50 -12 50 5 0 18 -11 31
-24z m587 -87 c13 -14 30 -19 71 -19 70 0 98 -25 89 -80 -8 -50 -58 -160 -63
-138 -2 9 5 35 16 57 28 55 27 68 -8 68 -25 0 -34 -9 -70 -73 -23 -41 -47 -77
-53 -80 -17 -10 0 45 23 77 10 15 19 31 19 36 0 4 9 19 20 33 23 29 25 40 8
40 -7 0 -28 -26 -47 -57 -19 -31 -36 -52 -38 -46 -5 14 35 95 51 106 8 5 7 10
-4 16 -11 8 -20 0 -38 -30 -13 -21 -27 -39 -33 -39 -14 0 -11 11 15 57 22 38
24 53 7 53 -4 0 -15 -16 -25 -35 -11 -19 -23 -35 -28 -35 -14 0 -9 16 17 54
14 20 25 39 25 41 0 12 -23 3 -42 -15 -12 -11 -25 -20 -30 -20 -15 0 -8 16 17
40 14 13 25 27 25 30 0 4 -11 5 -25 2 -25 -4 -37 15 -12 22 6 2 26 7 42 12 28
9 31 7 42 -24 6 -18 19 -42 29 -53z m-1203 24 c7 -37 -6 -44 -23 -13 -8 15 -7
24 2 34 7 8 13 13 14 12 1 0 4 -16 7 -33z m-50 -32 c-9 -11 -33 27 -27 43 6
16 9 14 19 -10 7 -16 10 -31 8 -33z m105 47 c5 -7 16 -33 25 -57 l14 -44 13
39 c13 40 37 74 52 74 27 0 -33 -132 -63 -138 -18 -3 -69 86 -69 120 0 21 13
23 28 6z m170 -8 c-5 -23 -34 -24 -34 -1 0 13 7 19 18 18 11 -1 17 -8 16 -17z
m-603 -29 c-8 -36 -25 -41 -25 -8 0 22 19 51 28 43 2 -3 1 -18 -3 -35z m109 6
c7 -6 4 -7 -7 -3 -10 3 -23 6 -29 6 -6 0 -5 7 3 16 11 13 14 13 18 3 2 -8 9
-18 15 -22z m876 -11 c0 -24 -6 -48 -12 -54 -10 -8 -12 1 -10 44 5 64 22 73
22 10z m-938 -16 c-5 -32 -19 -40 -28 -16 -7 17 14 59 25 52 4 -3 6 -19 3 -36z
m188 20 c0 -5 14 -29 30 -53 28 -42 37 -67 25 -67 -12 0 -84 50 -92 64 -4 7
-17 15 -27 17 -29 6 -25 20 13 40 33 18 51 17 51 -1z m560 -20 c39 -20 40 -22
40 -70 0 -28 -2 -50 -5 -50 -3 0 -23 12 -45 26 -25 16 -60 29 -89 32 -43 4
-51 1 -86 -29 -51 -46 -72 -95 -91 -225 -16 -111 -33 -150 -88 -197 -54 -47
-161 -63 -241 -37 -32 11 -36 15 -33 43 3 34 2 34 80 21 48 -8 97 9 138 49 44
43 59 83 76 198 18 134 63 210 149 251 50 23 136 18 195 -12z m400 14 c0 -24
-33 -47 -120 -84 -55 -23 -103 -40 -107 -37 -10 11 6 37 29 46 13 5 50 21 83
37 85 39 115 50 115 38z m-1034 -60 c112 -64 214 -125 214 -130 0 -2 -21 -3
-47 -3 -56 0 -127 33 -142 65 -5 12 -31 33 -56 48 -52 29 -55 30 -55 18 0 -4
23 -18 50 -31 34 -16 50 -30 50 -43 0 -10 7 -32 16 -49 14 -28 14 -31 -8 -49
-21 -17 -24 -18 -35 -3 -7 9 -16 33 -19 52 -3 20 -12 41 -18 46 -7 6 -15 18
-19 28 -7 18 -52 24 -62 7 -10 -17 -25 -11 -25 9 0 14 8 21 28 23 24 3 27 7
24 36 -2 17 -1 32 1 32 2 0 49 -25 103 -56z m151 41 c24 -17 48 -78 39 -100
-9 -25 -35 -17 -42 13 -4 15 -12 34 -19 42 -7 8 -16 25 -19 38 -9 26 9 30 41
7z m87 -57 c4 -16 4 -28 2 -28 -7 0 -56 85 -56 96 0 18 48 -42 54 -68z m901
31 c-6 -48 -15 -48 -15 0 0 23 4 40 9 36 5 -3 8 -19 6 -36z m-1340 12 c3 -5 1
-12 -4 -15 -12 -8 -41 3 -41 15 0 12 37 12 45 0z m497 -77 c2 -9 -1 -18 -7
-20 -10 -4 -45 70 -45 95 0 17 48 -52 52 -75z m798 46 c0 -22 -4 -40 -10 -40
-5 0 -10 18 -10 40 0 22 5 40 10 40 6 0 10 -18 10 -40z m-53 -47 c-2 -16 -4
-5 -4 22 0 28 2 40 4 28 2 -13 2 -35 0 -50z m-69 12 c-9 -19 -27 -30 -76 -45
-83 -26 -110 -11 -36 20 27 11 63 27 79 34 42 21 46 19 33 -9z m-458 -14 c0
-11 11 -29 26 -40 24 -19 25 -20 5 -30 -30 -16 -43 -14 -74 14 -33 31 -34 39
-5 59 30 21 48 20 48 -3z m50 9 c12 -8 11 -10 -7 -10 -13 0 -23 5 -23 10 0 13
11 13 30 0z m478 -48 c13 -2 41 -20 62 -41 46 -43 51 -74 19 -115 -23 -29 -77
-36 -124 -14 -26 12 -27 19 -10 60 5 12 -4 23 -31 42 -33 22 -40 24 -53 12
-13 -12 -19 -12 -33 -2 -30 22 -21 32 42 49 35 10 65 25 72 36 12 19 12 19 23
-2 6 -12 21 -23 33 -25z m-422 27 c9 -15 -14 -28 -39 -21 -19 5 -19 6 -2 19
23 16 32 16 41 2z m-405 -32 c-8 -8 -11 -7 -11 4 0 20 13 34 18 19 3 -7 -1
-17 -7 -23z m36 11 c-3 -8 -6 -5 -6 6 -1 11 2 17 5 13 3 -3 4 -12 1 -19z m863
1 c0 -5 -7 -9 -15 -9 -15 0 -20 12 -9 23 8 8 24 -1 24 -14z m99 -14 c60 -58
23 -203 -63 -244 -47 -23 -118 -27 -178 -10 -44 11 -46 20 -17 60 19 27 22 28
42 14 12 -8 40 -15 63 -15 57 0 104 42 104 93 0 20 -5 39 -11 43 -7 4 -2 11
12 18 26 13 41 43 16 33 -14 -5 -47 20 -47 36 0 14 56 -6 79 -28z m321 27 c0
-10 -87 -163 -100 -176 -24 -24 -7 34 25 87 19 32 35 61 35 66 0 9 22 31 32
31 4 0 8 -3 8 -8z m-1085 -44 c21 -9 35 -28 21 -28 -16 0 -56 21 -56 30 0 13
3 13 35 -2z m223 1 c-2 -7 -55 -34 -118 -60 -63 -27 -123 -54 -134 -60 -20
-12 -40 0 -28 17 10 15 233 112 260 113 14 1 22 -4 20 -10z m180 -38 l31 -38
-20 -33 c-19 -31 -21 -32 -40 -15 -14 14 -19 31 -19 72 0 29 4 53 8 53 5 0 23
-17 40 -39z m-758 15 c0 -11 -19 -15 -25 -6 -3 5 1 10 9 10 9 0 16 -2 16 -4z
m590 -26 c0 -22 -34 -44 -56 -36 -23 9 -16 31 14 43 39 16 42 15 42 -7z m-456
-1 c38 -10 38 -11 33 -51 -3 -22 -7 -41 -9 -44 -2 -2 -22 1 -43 7 -71 20 -161
-10 -194 -65 -10 -17 -29 -74 -40 -126 -46 -202 -59 -232 -106 -254 -80 -39
-146 -36 -199 7 l-29 23 71 0 c56 -1 76 3 99 20 42 31 72 93 88 181 19 105 38
165 66 205 65 91 158 126 263 97z m191 1 c3 -5 1 -10 -4 -10 -6 0 -11 5 -11
10 0 6 2 10 4 10 3 0 8 -4 11 -10z m538 -18 c14 -16 12 -23 -35 -99 -27 -45
-48 -85 -45 -90 3 -4 31 -21 62 -38 l57 -29 16 21 c23 29 97 37 97 10 0 -18
21 -37 42 -37 6 0 21 15 32 34 15 24 30 35 54 39 17 2 33 3 35 2 5 -5 -111
-205 -119 -205 -6 0 -84 44 -316 176 l-42 24 62 105 c34 58 66 105 73 105 6 0
18 -8 27 -18z m-355 -22 c7 -11 23 -20 37 -20 28 0 29 -3 15 -31 -10 -18 -12
-18 -38 6 -15 14 -35 28 -44 31 -21 6 -23 20 -5 27 20 9 22 8 35 -13z m875
-72 c-16 -37 -29 -56 -31 -45 -4 21 49 137 55 120 2 -7 -8 -40 -24 -75z m-866
0 c9 -10 11 -18 5 -18 -6 0 -14 5 -17 10 -4 6 -24 19 -46 30 -21 11 -39 25
-39 31 0 13 74 -28 97 -53z m-57 2 c25 -21 40 -39 34 -40 -10 0 -104 68 -104
76 0 14 32 -2 70 -36z m255 -37 l-20 -37 -3 28 c-2 16 -1 40 3 54 6 23 7 24
23 8 15 -15 15 -19 -3 -53z m-337 37 c45 -28 40 -35 -8 -10 -38 19 -49 30 -32
30 4 0 22 -9 40 -20z m-638 -33 c55 -33 70 -57 51 -86 -8 -13 -17 -11 -58 11
-102 55 -186 43 -239 -34 l-29 -42 -3 33 c-5 53 27 102 89 134 67 35 109 31
189 -16z m318 24 c-17 -27 -58 -46 -58 -26 0 15 37 45 57 45 11 0 11 -4 1 -19z
m-258 -5 c0 -8 6 -16 13 -19 6 -2 9 -8 5 -12 -4 -4 -14 -2 -23 5 -17 14 -20
40 -5 40 6 0 10 -6 10 -14z m350 -9 c0 -13 -190 -97 -217 -97 -21 0 -15 20 10
30 12 5 58 25 102 44 89 39 105 42 105 23z m-177 -15 c-5 -22 -43 -48 -43 -30
0 13 29 48 41 48 4 0 5 -8 2 -18z m137 -46 c0 -16 -26 -46 -41 -46 -15 0 -10
19 11 40 24 24 30 25 30 6z m731 0 c19 -7 42 -16 53 -20 15 -5 16 -9 6 -21
-10 -12 -17 -11 -53 9 -23 13 -43 29 -45 35 -5 14 -2 14 39 -3z m-794 -38 c-3
-8 -6 -5 -6 6 -1 11 2 17 5 13 3 -3 4 -12 1 -19z m618 2 c10 -11 16 -22 14
-25 -7 -6 -49 24 -49 36 0 15 16 10 35 -11z m-390 -67 c-7 -17 -12 -47 -18
-104 -2 -30 -24 -59 -43 -59 -17 0 -37 37 -30 56 3 8 0 24 -7 34 -8 15 -9 25
-1 37 16 26 34 27 35 1 1 -15 4 -11 10 15 5 21 16 52 26 70 l17 32 9 -32 c5
-18 6 -40 2 -50z m55 -3 c0 -30 -6 -52 -15 -60 -13 -11 -15 -8 -15 17 0 17 -3
52 -6 79 l-7 49 22 -19 c16 -14 21 -31 21 -66z m440 19 c0 -16 -29 -22 -45 -9
-8 7 -15 21 -15 31 0 18 2 19 30 4 17 -9 30 -20 30 -26z m-81 -7 c251 -147
331 -196 331 -201 0 -3 -7 -14 -14 -24 -13 -17 -29 -9 -236 109 -199 114 -220
129 -204 141 28 21 53 16 123 -25z m-257 12 c15 -9 8 -26 -17 -46 -30 -23 -32
-48 -5 -55 27 -7 25 -17 -6 -42 -32 -25 -82 -27 -110 -5 -15 12 -16 16 -5 21
38 16 61 52 61 99 l0 46 37 -7 c21 -4 41 -9 45 -11z m68 -4 c0 -12 -28 -25
-36 -17 -9 9 6 27 22 27 8 0 14 -5 14 -10z m-720 -14 c-24 -22 -350 -158 -368
-153 -10 2 10 16 53 36 39 18 79 36 90 41 175 81 260 110 225 76z m760 -9 c0
-7 -5 -18 -12 -25 -6 -6 -9 -14 -6 -18 4 -3 14 3 24 15 10 11 21 18 24 16 14
-9 -2 -54 -24 -68 -21 -14 -35 -12 -93 13 -49 21 -45 30 19 44 15 4 33 13 40
21 16 18 28 19 28 2z m329 -33 c45 -25 81 -50 81 -55 0 -15 -16 -9 -97 36 -40
22 -73 46 -73 53 0 17 -2 17 89 -34z m-1111 -37 c5 -40 -32 -93 -75 -108 -41
-13 -105 -7 -160 16 -44 19 -41 22 60 61 37 14 84 34 105 45 48 24 66 20 70
-14z m206 2 c5 -5 -3 -13 -18 -19 -35 -13 -66 2 -59 29 4 17 9 18 36 9 18 -6
36 -14 41 -19z m159 -18 c32 -17 34 -27 8 -41 -35 -18 -76 -12 -107 18 l-29
27 45 6 c52 7 47 7 83 -10z"/>
<path d="M1805 2801 c-3 -5 -1 -12 5 -16 5 -3 10 1 10 9 0 18 -6 21 -15 7z"/>
<path d="M1410 2361 c0 -5 7 -11 14 -14 10 -4 13 -1 9 9 -6 15 -23 19 -23 5z"/>
<path d="M1370 2342 c0 -13 35 -42 50 -42 9 0 5 9 -10 25 -24 25 -40 32 -40
17z"/>
<path d="M1420 2261 c0 -12 7 -24 15 -28 24 -9 25 0 4 26 -19 23 -19 23 -19 2z"/>
<path d="M1500 2151 c0 -6 5 -13 10 -16 6 -3 10 1 10 9 0 9 -4 16 -10 16 -5 0
-10 -4 -10 -9z"/>
<path d="M1945 2360 c4 -6 11 -8 16 -5 14 9 11 15 -7 15 -8 0 -12 -5 -9 -10z"/>
<path d="M1970 2325 c-13 -14 -19 -25 -14 -25 14 0 54 30 54 41 0 16 -16 10
-40 -16z"/>
<path d="M1936 2258 c-16 -22 -15 -35 2 -24 9 5 24 46 17 46 -2 0 -11 -10 -19
-22z"/>
<path d="M1862 2159 c-7 -12 -11 -24 -7 -27 7 -8 25 17 25 36 0 17 -3 15 -18
-9z"/>
<path d="M2254 1996 c-20 -20 -34 -40 -30 -43 4 -4 23 10 43 30 21 20 34 39
30 43 -3 4 -23 -10 -43 -30z"/>
<path d="M2275 1889 c-12 -19 5 -23 22 -6 16 16 16 17 1 17 -9 0 -20 -5 -23
-11z"/>
<path d="M2285 1800 c-3 -5 3 -10 14 -10 12 0 21 5 21 10 0 6 -6 10 -14 10 -8
0 -18 -4 -21 -10z"/>
<path d="M2280 1715 c7 -9 15 -13 17 -11 7 7 -7 26 -19 26 -6 0 -6 -6 2 -15z"/>
<path d="M2210 1681 c0 -5 5 -13 10 -16 6 -3 10 -2 10 4 0 5 -4 13 -10 16 -5
3 -10 2 -10 -4z"/>
<path d="M2060 1654 c0 -8 5 -12 10 -9 6 3 10 10 10 16 0 5 -4 9 -10 9 -5 0
-10 -7 -10 -16z"/>
<path d="M1106 1985 c25 -33 44 -45 44 -27 0 11 -50 62 -61 62 -5 0 2 -16 17
-35z"/>
<path d="M1083 1883 c9 -9 20 -13 24 -9 4 4 1 11 -7 16 -25 16 -35 11 -17 -7z"/>
<path d="M1055 1800 c3 -5 13 -10 21 -10 8 0 14 5 14 10 0 6 -9 10 -21 10 -11
0 -17 -4 -14 -10z"/>
<path d="M1085 1720 c-3 -5 -2 -10 4 -10 5 0 13 5 16 10 3 6 2 10 -4 10 -5 0
-13 -4 -16 -10z"/>
<path d="M1146 1675 c-3 -8 -1 -15 3 -15 5 0 11 7 15 15 3 8 1 15 -3 15 -5 0
-11 -7 -15 -15z"/>
<path d="M1296 1655 c4 -8 8 -15 10 -15 2 0 4 7 4 15 0 8 -4 15 -10 15 -5 0
-7 -7 -4 -15z"/>
<path d="M1221 1644 c0 -11 3 -14 6 -6 3 7 2 16 -1 19 -3 4 -6 -2 -5 -13z"/>
<path d="M1558 1653 c7 -3 16 -2 19 1 4 3 -2 6 -13 5 -11 0 -14 -3 -6 -6z"/>
<path d="M709 1512 c-9 -4 -28 -21 -42 -37 -14 -17 -36 -37 -50 -44 -53 -28
-65 -80 -42 -186 3 -16 8 -40 11 -52 5 -26 35 -31 53 -9 7 8 25 17 39 21 35 7
90 59 98 91 4 14 4 44 1 67 -4 28 -1 48 9 61 19 27 18 42 -6 66 l-21 21 -25
-31 c-27 -32 -54 -40 -54 -15 0 8 14 21 30 30 41 21 40 34 -1 17z m65 -76 c-6
-16 -34 -30 -34 -18 0 5 5 13 12 20 16 16 29 15 22 -2z m-87 -12 c17 -5 20
-10 14 -23 -5 -9 -7 -29 -4 -44 4 -21 13 -29 34 -34 16 -3 29 -12 29 -20 0
-21 -57 -72 -89 -79 -14 -4 -34 -13 -43 -21 -20 -17 -42 -8 -34 14 4 8 -1 35
-9 60 -19 55 -7 102 32 133 28 21 36 23 70 14z m73 -55 c0 -5 -4 -9 -10 -9 -5
0 -10 7 -10 16 0 8 5 12 10 9 6 -3 10 -10 10 -16z"/>
<path d="M580 1450 c-18 -12 -2 -12 25 0 13 6 15 9 5 9 -8 0 -22 -4 -30 -9z"/>
<path d="M527 1401 c-9 -16 -17 -44 -16 -63 0 -31 1 -30 13 14 7 26 18 54 26
62 7 9 8 16 3 16 -5 0 -16 -13 -26 -29z"/>
<path d="M531 1247 c-1 -32 15 -67 31 -67 7 0 6 5 -2 15 -7 8 -16 30 -20 48
-8 32 -8 32 -9 4z"/>
<path d="M1995 1120 c3 -5 8 -10 11 -10 2 0 4 5 4 10 0 6 -5 10 -11 10 -5 0
-7 -4 -4 -10z"/>
<path d="M2310 2631 c0 -5 5 -13 10 -16 6 -3 10 -2 10 4 0 5 -4 13 -10 16 -5
3 -10 2 -10 -4z"/>
<path d="M1051 2614 c0 -11 3 -14 6 -6 3 7 2 16 -1 19 -3 4 -6 -2 -5 -13z"/>
<path d="M4596 2165 c-3 -8 -18 -17 -33 -21 -66 -16 -106 -94 -83 -164 15 -46
32 -64 82 -84 20 -9 39 -21 42 -28 3 -10 8 -9 15 4 6 9 24 19 41 23 16 4 44
20 61 36 30 28 31 32 27 94 -5 75 -29 109 -84 120 -19 3 -38 13 -41 21 -7 18
-19 18 -27 -1z m4 -145 c0 -102 -1 -110 -19 -110 -11 0 -32 10 -47 23 -22 19
-28 34 -32 78 -4 49 -1 59 23 87 16 20 36 32 51 32 24 0 24 0 24 -110z m101
81 c62 -62 21 -191 -60 -191 -20 0 -21 5 -21 110 l0 110 26 0 c15 0 38 -12 55
-29z"/>
<path d="M4822 2023 c2 -103 7 -148 15 -150 8 -3 13 16 15 64 3 59 6 68 23 71
36 4 67 -21 87 -73 11 -27 24 -54 29 -59 15 -16 23 2 12 27 -6 12 -17 39 -26
59 -10 22 -29 44 -47 53 -22 11 -29 20 -22 28 37 49 89 113 97 119 6 4 1 8
-10 8 -13 0 -36 -23 -69 -70 -64 -91 -76 -91 -76 0 0 56 -3 70 -15 70 -13 0
-15 -21 -13 -147z"/>
<path d="M5053 2163 c2 -5 25 -52 51 -105 45 -95 46 -98 31 -128 -8 -16 -27
-33 -40 -36 -27 -7 -34 -24 -10 -24 17 0 85 58 85 72 0 5 7 24 15 41 33 71 74
181 70 186 -10 10 -25 -17 -51 -89 -14 -41 -30 -79 -35 -84 -5 -6 -25 27 -50
82 -24 52 -48 92 -56 92 -8 0 -12 -3 -10 -7z"/>
<path d="M3360 1480 c0 -93 4 -150 10 -150 6 0 10 30 10 69 0 38 4 71 10 73 5
2 43 2 85 0 l75 -4 0 -69 c0 -39 4 -69 10 -69 6 0 10 57 10 150 0 88 -4 150
-10 150 -5 0 -10 -28 -12 -62 l-3 -63 -82 -3 -83 -3 0 66 c0 37 -4 65 -10 65
-6 0 -10 -57 -10 -150z"/>
<path d="M3681 1493 c-25 -76 -47 -144 -49 -152 -3 -8 0 -12 8 -9 7 2 20 24
29 48 l17 45 59 0 59 0 16 -47 c8 -27 21 -48 28 -48 17 0 17 -2 -36 155 -66
191 -72 191 -131 8z m92 38 c23 -79 19 -91 -33 -91 -34 0 -40 3 -40 20 0 35
34 140 45 137 5 -2 18 -32 28 -66z"/>
<path d="M3960 1520 c0 -110 -11 -160 -37 -160 -7 0 -13 -7 -13 -15 0 -41 53
13 69 70 6 22 11 75 11 118 l0 77 55 0 c37 0 55 -4 56 -12 0 -7 1 -69 2 -137
2 -89 6 -125 15 -128 9 -4 12 30 12 146 l0 151 -85 0 -85 0 0 -110z"/>
<path d="M4267 1613 c-64 -33 -88 -139 -49 -212 50 -93 188 -90 228 4 19 46
18 119 -3 162 -27 58 -112 80 -176 46z m121 -19 c72 -50 66 -191 -9 -229 -45
-24 -77 -19 -115 19 -31 31 -34 40 -34 90 0 60 18 108 47 125 27 16 86 13 111
-5z"/>
<path d="M4530 1480 c0 -127 2 -150 15 -150 13 0 15 22 15 140 l0 140 54 0
c30 0 58 5 61 10 4 6 -22 10 -69 10 l-76 0 0 -150z"/>
<path d="M4959 1607 c-49 -32 -71 -80 -66 -145 3 -41 10 -59 32 -82 35 -37 91
-55 139 -46 49 9 47 28 -2 20 -48 -8 -104 15 -128 51 -25 38 -23 118 3 153 29
40 62 53 116 49 35 -3 47 -1 47 9 0 24 -101 18 -141 -9z"/>
<path d="M5172 1480 l0 -150 79 0 c94 0 107 18 17 22 l-63 3 -3 58 -3 57 55 0
c75 0 82 18 9 22 l-58 3 -3 58 c-3 63 -7 60 74 57 23 -1 45 3 49 9 4 8 -19 11
-73 11 l-80 0 0 -150z"/>
<path d="M5397 1623 c-4 -3 -7 -71 -7 -150 0 -120 2 -143 15 -143 12 0 15 14
15 65 l0 65 44 0 c58 0 86 23 93 77 5 36 2 45 -22 67 -23 21 -38 26 -80 26
-28 0 -55 -3 -58 -7z m115 -28 c10 -6 20 -25 24 -42 5 -26 2 -36 -21 -57 -19
-17 -39 -26 -61 -26 l-34 0 0 68 c0 38 2 71 5 74 7 7 66 -5 87 -17z"/>
<path d="M5640 1479 l0 -151 60 4 c103 7 144 77 83 140 l-27 28 22 16 c22 15
29 57 14 80 -14 22 -51 34 -101 34 l-51 0 0 -151z m123 113 c21 -19 22 -41 1
-70 -13 -19 -24 -22 -57 -20 l-42 3 -3 49 c-2 32 1 52 10 58 17 11 68 0 91
-20z m6 -138 c27 -35 26 -50 -4 -80 -20 -20 -34 -25 -63 -22 -37 3 -37 3 -40
52 -4 68 1 76 47 76 31 0 44 -6 60 -26z"/>
<path d="M5890 1480 c0 -113 3 -150 13 -150 11 0 70 91 127 195 44 81 47 77
46 -61 -1 -93 2 -128 12 -131 9 -4 12 30 12 146 0 126 -2 151 -15 151 -15 0
-60 -66 -116 -170 -19 -35 -40 -71 -46 -78 -16 -16 -16 -16 -13 136 1 75 -2
112 -9 112 -7 0 -11 -48 -11 -150z"/>
<path d="M6242 1612 c-49 -27 -72 -68 -72 -130 0 -70 21 -109 73 -133 44 -19
76 -23 115 -13 39 11 24 20 -31 20 -66 -1 -99 16 -121 60 -20 44 -20 84 1 128
20 43 65 66 128 66 28 0 44 4 40 10 -10 16 -97 11 -133 -8z"/>
<path d="M3670 1082 c0 -5 -17 -16 -39 -25 -58 -26 -74 -50 -78 -115 -5 -74
17 -112 76 -132 22 -7 41 -19 41 -27 0 -18 19 -17 26 2 3 8 24 20 46 27 22 6
48 22 58 35 28 36 35 104 16 145 -17 35 -61 68 -90 68 -9 0 -19 7 -22 15 -6
16 -34 21 -34 7z m-2 -151 l3 -113 -28 7 c-79 20 -99 138 -33 198 18 16 37 26
43 24 8 -2 13 -41 15 -116z m81 104 c37 -19 55 -64 48 -121 -5 -51 -27 -79
-69 -89 l-28 -7 0 116 c0 74 4 116 10 116 6 0 24 -7 39 -15z"/>
<path d="M6132 1081 c-10 -6 -82 -117 -82 -127 0 -12 -67 -111 -75 -110 -6 1
-9 45 -6 119 3 102 1 117 -13 117 -14 0 -16 -19 -16 -144 0 -80 4 -147 9 -150
4 -3 15 0 23 7 16 13 138 215 138 229 0 4 5 8 10 8 6 0 10 -47 10 -120 0 -100
3 -120 15 -120 13 0 15 23 15 144 0 80 -4 147 -8 150 -4 2 -13 1 -20 -3z"/>
<path d="M3890 929 c0 -112 3 -150 12 -147 8 3 11 24 9 62 -3 76 6 86 84 86
78 0 88 -10 83 -85 -2 -37 1 -56 10 -60 9 -3 12 30 12 145 0 93 -4 150 -10
150 -5 0 -11 -21 -12 -47 -2 -66 -2 -71 -10 -79 -13 -12 -142 -12 -150 0 -4 6
-8 37 -8 69 0 31 -4 57 -10 57 -6 0 -10 -57 -10 -151z"/>
<path d="M4250 1062 c-119 -59 -102 -243 25 -272 40 -9 105 -2 105 11 0 4 -15
5 -34 2 -87 -14 -146 41 -146 136 0 47 4 57 34 87 31 31 40 34 91 34 35 0 54
4 50 10 -10 16 -87 11 -125 -8z"/>
<path d="M4582 935 c2 -89 7 -145 13 -145 6 1 9 17 8 38 -5 65 2 78 41 79 71
2 120 65 96 123 -14 35 -48 50 -111 50 l-50 0 3 -145z m120 108 c23 -21 24
-75 1 -95 -10 -8 -34 -18 -55 -21 l-36 -5 -4 61 c-2 34 -2 65 0 70 6 14 75 7
94 -10z"/>
<path d="M4874 1070 c-12 -5 -35 -25 -50 -46 -49 -63 -33 -178 31 -220 35 -23
110 -22 143 3 85 62 81 212 -7 258 -33 16 -84 19 -117 5z m127 -41 c25 -27 29
-39 29 -89 0 -104 -68 -164 -146 -126 -79 37 -86 178 -12 230 12 9 40 16 61
16 31 0 45 -7 68 -31z"/>
<path d="M5193 1069 c-97 -28 -114 -209 -26 -261 15 -9 39 -17 53 -18 52 -4
100 0 100 10 0 6 -15 8 -38 4 -106 -17 -184 91 -137 190 22 46 60 66 125 66
32 0 49 4 45 10 -8 12 -78 12 -122 -1z"/>
<path d="M5444 1066 c-66 -29 -96 -102 -74 -181 15 -54 47 -85 98 -95 46 -8
102 -2 102 11 0 5 -17 6 -39 3 -82 -13 -141 44 -141 136 0 47 4 56 36 86 32
31 41 34 97 34 44 0 58 3 47 10 -21 14 -90 12 -126 -4z"/>
<path d="M5650 930 c0 -82 3 -150 8 -150 4 0 12 4 18 8 12 7 125 193 137 225
3 9 11 17 17 17 6 0 10 -46 10 -126 0 -81 4 -123 10 -119 6 4 10 65 10 151 0
117 -3 144 -14 144 -12 0 -50 -50 -65 -85 -2 -5 -21 -37 -41 -70 -20 -33 -39
-68 -43 -77 -3 -10 -11 -18 -17 -18 -6 0 -10 46 -10 125 0 77 -4 125 -10 125
-6 0 -10 -57 -10 -150z"/>
</g>
</svg>
